0
SECTION
2
HEADER
9
$ACADVER
1
AC1009
9
$INSUNITS
70
4
0
ENDSEC
0
SECTION
2
TABLES
0
TABLE
2
LAYER
70
9
0
LAYER
2
0
70
0
62
7
6
CONTINUOUS
0
LAYER
2
OBJECT
70
0
62
7
6
CONTINUOUS
0
LAYER
2
CUT_THROUGH
70
0
62
1
6
CONTINUOUS
0
LAYER
2
POCKET_8MM
70
0
62
5
6
CONTINUOUS
0
LAYER
2
CENTER
70
0
62
4
6
CONTINUOUS
0
LAYER
2
DIM
70
0
62
3
6
CONTINUOUS
0
LAYER
2
TEXT
70
0
62
7
6
CONTINUOUS
0
LAYER
2
TITLE
70
0
62
2
6
CONTINUOUS
0
LAYER
2
HINGE
70
0
62
6
6
CONTINUOUS
0
ENDTAB
0
ENDSEC
0
SECTION
2
ENTITIES
0
TEXT
8
TITLE
10
0.0000
20
1080.0000
30
0.0000
40
26.000
1
FOTOBOX REV. 6 - FERTIGUNGSZEICHNUNG
50
0.000
0
TEXT
8
TEXT
10
0.0000
20
1048.0000
30
0.0000
40
12.000
1
Aussen 460 x 460 x 300 | Front 15 mm | Korpus 9 mm | alle Masse in mm
50
0.000
0
LINE
8
OBJECT
10
0.0000
20
1032.0000
30
0.0000
11
1650.0000
21
1032.0000
31
0.0000
0
POLYLINE
8
OBJECT
66
1
70
1
0
VERTEX
8
OBJECT
10
0.0000
20
500.0000
30
0.0000
70
0
0
VERTEX
8
OBJECT
10
460.0000
20
500.0000
30
0.0000
70
0
0
VERTEX
8
OBJECT
10
460.0000
20
960.0000
30
0.0000
70
0
0
VERTEX
8
OBJECT
10
0.0000
20
960.0000
30
0.0000
70
0
0
SEQEND
8
OBJECT
0
POLYLINE
8
CUT_THROUGH
66
1
70
1
0
VERTEX
8
CUT_THROUGH
10
57.5000
20
627.0000
30
0.0000
70
0
0
VERTEX
8
CUT_THROUGH
10
402.5000
20
627.0000
30
0.0000
70
0
0
VERTEX
8
CUT_THROUGH
10
402.5000
20
822.0000
30
0.0000
70
0
0
VERTEX
8
CUT_THROUGH
10
57.5000
20
822.0000
30
0.0000
70
0
0
SEQEND
8
CUT_THROUGH
0
CIRCLE
8
CUT_THROUGH
10
230.0000
20
890.0000
30
0.0000
40
37.5000
0
CIRCLE
8
CUT_THROUGH
10
190.0000
20
575.0000
30
0.0000
40
14.0000
0
CIRCLE
8
CUT_THROUGH
10
270.0000
20
575.0000
30
0.0000
40
14.0000
0
POLYLINE
8
POCKET_8MM
66
1
70
1
0
VERTEX
8
POCKET_8MM
10
20.2500
20
574.5000
30
0.0000
70
0
0
VERTEX
8
POCKET_8MM
10
37.2500
20
574.5000
30
0.0000
70
0
0
VERTEX
8
POCKET_8MM
10
37.2500
20
874.5000
30
0.0000
70
0
0
VERTEX
8
POCKET_8MM
10
20.2500
20
874.5000
30
0.0000
70
0
0
SEQEND
8
POCKET_8MM
0
POLYLINE
8
POCKET_8MM
66
1
70
1
0
VERTEX
8
POCKET_8MM
10
422.7500
20
574.5000
30
0.0000
70
0
0
VERTEX
8
POCKET_8MM
10
439.7500
20
574.5000
30
0.0000
70
0
0
VERTEX
8
POCKET_8MM
10
439.7500
20
874.5000
30
0.0000
70
0
0
VERTEX
8
POCKET_8MM
10
422.7500
20
874.5000
30
0.0000
70
0
0
SEQEND
8
POCKET_8MM
0
LINE
8
CENTER
10
230.0000
20
500.0000
30
0.0000
11
230.0000
21
960.0000
31
0.0000
0
TEXT
8
TITLE
10
0.0000
20
985.0000
30
0.0000
40
15.000
1
A  FRONTPLATTE 460 x 460 x 15
50
0.000
0
LINE
8
DIM
10
0.0000
20
500.0000
30
0.0000
11
0.0000
21
462.0000
31
0.0000
0
LINE
8
DIM
10
460.0000
20
500.0000
30
0.0000
11
460.0000
21
462.0000
31
0.0000
0
LINE
8
DIM
10
0.0000
20
462.0000
30
0.0000
11
460.0000
21
462.0000
31
0.0000
0
LINE
8
DIM
10
0.0000
20
462.0000
30
0.0000
11
8.0000
21
466.0000
31
0.0000
0
LINE
8
DIM
10
0.0000
20
462.0000
30
0.0000
11
8.0000
21
458.0000
31
0.0000
0
LINE
8
DIM
10
460.0000
20
462.0000
30
0.0000
11
452.0000
21
466.0000
31
0.0000
0
LINE
8
DIM
10
460.0000
20
462.0000
30
0.0000
11
452.0000
21
458.0000
31
0.0000
0
TEXT
8
DIM
10
210.0000
20
469.0000
30
0.0000
40
9.000
1
460
50
0.000
0
LINE
8
DIM
10
0.0000
20
500.0000
30
0.0000
11
-38.0000
21
500.0000
31
0.0000
0
LINE
8
DIM
10
0.0000
20
960.0000
30
0.0000
11
-38.0000
21
960.0000
31
0.0000
0
LINE
8
DIM
10
-38.0000
20
500.0000
30
0.0000
11
-38.0000
21
960.0000
31
0.0000
0
LINE
8
DIM
10
-38.0000
20
500.0000
30
0.0000
11
-42.0000
21
508.0000
31
0.0000
0
LINE
8
DIM
10
-38.0000
20
500.0000
30
0.0000
11
-34.0000
21
508.0000
31
0.0000
0
LINE
8
DIM
10
-38.0000
20
960.0000
30
0.0000
11
-42.0000
21
952.0000
31
0.0000
0
LINE
8
DIM
10
-38.0000
20
960.0000
30
0.0000
11
-34.0000
21
952.0000
31
0.0000
0
TEXT
8
DIM
10
-45.0000
20
712.0000
30
0.0000
40
9.000
1
460
50
90.000
0
LINE
8
DIM
10
57.5000
20
627.0000
30
0.0000
11
57.5000
21
610.0000
31
0.0000
0
LINE
8
DIM
10
402.5000
20
627.0000
30
0.0000
11
402.5000
21
610.0000
31
0.0000
0
LINE
8
DIM
10
57.5000
20
610.0000
30
0.0000
11
402.5000
21
610.0000
31
0.0000
0
LINE
8
DIM
10
57.5000
20
610.0000
30
0.0000
11
65.5000
21
614.0000
31
0.0000
0
LINE
8
DIM
10
57.5000
20
610.0000
30
0.0000
11
65.5000
21
606.0000
31
0.0000
0
LINE
8
DIM
10
402.5000
20
610.0000
30
0.0000
11
394.5000
21
614.0000
31
0.0000
0
LINE
8
DIM
10
402.5000
20
610.0000
30
0.0000
11
394.5000
21
606.0000
31
0.0000
0
TEXT
8
DIM
10
210.0000
20
617.0000
30
0.0000
40
9.000
1
345
50
0.000
0
LINE
8
DIM
10
402.5000
20
627.0000
30
0.0000
11
420.0000
21
627.0000
31
0.0000
0
LINE
8
DIM
10
402.5000
20
822.0000
30
0.0000
11
420.0000
21
822.0000
31
0.0000
0
LINE
8
DIM
10
420.0000
20
627.0000
30
0.0000
11
420.0000
21
822.0000
31
0.0000
0
LINE
8
DIM
10
420.0000
20
627.0000
30
0.0000
11
416.0000
21
635.0000
31
0.0000
0
LINE
8
DIM
10
420.0000
20
627.0000
30
0.0000
11
424.0000
21
635.0000
31
0.0000
0
LINE
8
DIM
10
420.0000
20
822.0000
30
0.0000
11
416.0000
21
814.0000
31
0.0000
0
LINE
8
DIM
10
420.0000
20
822.0000
30
0.0000
11
424.0000
21
814.0000
31
0.0000
0
TEXT
8
DIM
10
413.0000
20
706.5000
30
0.0000
40
9.000
1
195
50
90.000
0
TEXT
8
TEXT
10
135.0000
20
720.0000
30
0.0000
40
10.000
1
DISPLAY DURCHBRUCH
50
0.000
0
TEXT
8
TEXT
10
300.0000
20
925.0000
30
0.0000
40
9.000
1
Kamera D=75
50
0.000
0
TEXT
8
TEXT
10
165.0000
20
548.0000
30
0.0000
40
9.000
1
2x Taster D=28
50
0.000
0
TEXT
8
TEXT
10
5.0000
20
890.0000
30
0.0000
40
8.000
1
LED-Taschen:
50
0.000
0
TEXT
8
TEXT
10
5.0000
20
874.0000
30
0.0000
40
8.000
1
300 x 17, Tiefe 8
50
0.000
0
POLYLINE
8
OBJECT
66
1
70
1
0
VERTEX
8
OBJECT
10
570.0000
20
500.0000
30
0.0000
70
0
0
VERTEX
8
OBJECT
10
846.0000
20
500.0000
30
0.0000
70
0
0
VERTEX
8
OBJECT
10
846.0000
20
960.0000
30
0.0000
70
0
0
VERTEX
8
OBJECT
10
570.0000
20
960.0000
30
0.0000
70
0
0
SEQEND
8
OBJECT
0
POLYLINE
8
CUT_THROUGH
66
1
70
1
0
VERTEX
8
CUT_THROUGH
10
605.0000
20
550.0000
30
0.0000
70
0
0
VERTEX
8
CUT_THROUGH
10
720.0000
20
550.0000
30
0.0000
70
0
0
VERTEX
8
CUT_THROUGH
10
720.0000
20
580.0000
30
0.0000
70
0
0
VERTEX
8
CUT_THROUGH
10
605.0000
20
580.0000
30
0.0000
70
0
0
SEQEND
8
CUT_THROUGH
0
TEXT
8
TITLE
10
570.0000
20
985.0000
30
0.0000
40
15.000
1
B  LINKE SEITE 276 x 460 x 9
50
0.000
0
LINE
8
DIM
10
570.0000
20
500.0000
30
0.0000
11
570.0000
21
462.0000
31
0.0000
0
LINE
8
DIM
10
846.0000
20
500.0000
30
0.0000
11
846.0000
21
462.0000
31
0.0000
0
LINE
8
DIM
10
570.0000
20
462.0000
30
0.0000
11
846.0000
21
462.0000
31
0.0000
0
LINE
8
DIM
10
570.0000
20
462.0000
30
0.0000
11
578.0000
21
466.0000
31
0.0000
0
LINE
8
DIM
10
570.0000
20
462.0000
30
0.0000
11
578.0000
21
458.0000
31
0.0000
0
LINE
8
DIM
10
846.0000
20
462.0000
30
0.0000
11
838.0000
21
466.0000
31
0.0000
0
LINE
8
DIM
10
846.0000
20
462.0000
30
0.0000
11
838.0000
21
458.0000
31
0.0000
0
TEXT
8
DIM
10
688.0000
20
469.0000
30
0.0000
40
9.000
1
285
50
0.000
0
LINE
8
DIM
10
570.0000
20
500.0000
30
0.0000
11
532.0000
21
500.0000
31
0.0000
0
LINE
8
DIM
10
570.0000
20
960.0000
30
0.0000
11
532.0000
21
960.0000
31
0.0000
0
LINE
8
DIM
10
532.0000
20
500.0000
30
0.0000
11
532.0000
21
960.0000
31
0.0000
0
LINE
8
DIM
10
532.0000
20
500.0000
30
0.0000
11
528.0000
21
508.0000
31
0.0000
0
LINE
8
DIM
10
532.0000
20
500.0000
30
0.0000
11
536.0000
21
508.0000
31
0.0000
0
LINE
8
DIM
10
532.0000
20
960.0000
30
0.0000
11
528.0000
21
952.0000
31
0.0000
0
LINE
8
DIM
10
532.0000
20
960.0000
30
0.0000
11
536.0000
21
952.0000
31
0.0000
0
TEXT
8
DIM
10
525.0000
20
712.0000
30
0.0000
40
9.000
1
460
50
90.000
0
LINE
8
DIM
10
605.0000
20
550.0000
30
0.0000
11
605.0000
21
535.0000
31
0.0000
0
LINE
8
DIM
10
720.0000
20
550.0000
30
0.0000
11
720.0000
21
535.0000
31
0.0000
0
LINE
8
DIM
10
605.0000
20
535.0000
30
0.0000
11
720.0000
21
535.0000
31
0.0000
0
LINE
8
DIM
10
605.0000
20
535.0000
30
0.0000
11
613.0000
21
539.0000
31
0.0000
0
LINE
8
DIM
10
605.0000
20
535.0000
30
0.0000
11
613.0000
21
531.0000
31
0.0000
0
LINE
8
DIM
10
720.0000
20
535.0000
30
0.0000
11
712.0000
21
539.0000
31
0.0000
0
LINE
8
DIM
10
720.0000
20
535.0000
30
0.0000
11
712.0000
21
531.0000
31
0.0000
0
TEXT
8
DIM
10
642.5000
20
542.0000
30
0.0000
40
9.000
1
115
50
0.000
0
LINE
8
DIM
10
605.0000
20
550.0000
30
0.0000
11
590.0000
21
550.0000
31
0.0000
0
LINE
8
DIM
10
605.0000
20
580.0000
30
0.0000
11
590.0000
21
580.0000
31
0.0000
0
LINE
8
DIM
10
590.0000
20
550.0000
30
0.0000
11
590.0000
21
580.0000
31
0.0000
0
LINE
8
DIM
10
590.0000
20
550.0000
30
0.0000
11
586.0000
21
558.0000
31
0.0000
0
LINE
8
DIM
10
590.0000
20
550.0000
30
0.0000
11
594.0000
21
558.0000
31
0.0000
0
LINE
8
DIM
10
590.0000
20
580.0000
30
0.0000
11
586.0000
21
572.0000
31
0.0000
0
LINE
8
DIM
10
590.0000
20
580.0000
30
0.0000
11
594.0000
21
572.0000
31
0.0000
0
TEXT
8
DIM
10
583.0000
20
547.0000
30
0.0000
40
9.000
1
30
50
90.000
0
TEXT
8
TEXT
10
625.0000
20
590.0000
30
0.0000
40
9.000
1
DRUCKER DURCHBRUCH
50
0.000
0
TEXT
8
TEXT
10
575.0000
20
920.0000
30
0.0000
40
8.000
1
35 mm ab Vorderkante
50
0.000
0
TEXT
8
TEXT
10
575.0000
20
903.0000
30
0.0000
40
8.000
1
50 mm ab Unterkante
50
0.000
0
POLYLINE
8
OBJECT
66
1
70
1
0
VERTEX
8
OBJECT
10
970.0000
20
500.0000
30
0.0000
70
0
0
VERTEX
8
OBJECT
10
1430.0000
20
500.0000
30
0.0000
70
0
0
VERTEX
8
OBJECT
10
1430.0000
20
960.0000
30
0.0000
70
0
0
VERTEX
8
OBJECT
10
970.0000
20
960.0000
30
0.0000
70
0
0
SEQEND
8
OBJECT
0
POLYLINE
8
HINGE
66
1
70
1
0
VERTEX
8
HINGE
10
962.0000
20
605.0000
30
0.0000
70
0
0
VERTEX
8
HINGE
10
986.0000
20
605.0000
30
0.0000
70
0
0
VERTEX
8
HINGE
10
986.0000
20
660.0000
30
0.0000
70
0
0
VERTEX
8
HINGE
10
962.0000
20
660.0000
30
0.0000
70
0
0
SEQEND
8
HINGE
0
POLYLINE
8
HINGE
66
1
70
1
0
VERTEX
8
HINGE
10
962.0000
20
805.0000
30
0.0000
70
0
0
VERTEX
8
HINGE
10
986.0000
20
805.0000
30
0.0000
70
0
0
VERTEX
8
HINGE
10
986.0000
20
860.0000
30
0.0000
70
0
0
VERTEX
8
HINGE
10
962.0000
20
860.0000
30
0.0000
70
0
0
SEQEND
8
HINGE
0
CIRCLE
8
HINGE
10
1390.0000
20
730.0000
30
0.0000
40
10.0000
0
POLYLINE
8
HINGE
66
1
70
1
0
VERTEX
8
HINGE
10
1339.0000
20
770.0000
30
0.0000
70
0
0
VERTEX
8
HINGE
10
1351.0000
20
770.0000
30
0.0000
70
0
0
VERTEX
8
HINGE
10
1351.0000
20
890.0000
30
0.0000
70
0
0
VERTEX
8
HINGE
10
1339.0000
20
890.0000
30
0.0000
70
0
0
SEQEND
8
HINGE
0
POLYLINE
8
HINGE
66
1
70
1
0
VERTEX
8
HINGE
10
1333.0000
20
780.0000
30
0.0000
70
0
0
VERTEX
8
HINGE
10
1357.0000
20
780.0000
30
0.0000
70
0
0
VERTEX
8
HINGE
10
1357.0000
20
792.0000
30
0.0000
70
0
0
VERTEX
8
HINGE
10
1333.0000
20
792.0000
30
0.0000
70
0
0
SEQEND
8
HINGE
0
POLYLINE
8
HINGE
66
1
70
1
0
VERTEX
8
HINGE
10
1333.0000
20
870.0000
30
0.0000
70
0
0
VERTEX
8
HINGE
10
1357.0000
20
870.0000
30
0.0000
70
0
0
VERTEX
8
HINGE
10
1357.0000
20
882.0000
30
0.0000
70
0
0
VERTEX
8
HINGE
10
1333.0000
20
882.0000
30
0.0000
70
0
0
SEQEND
8
HINGE
0
TEXT
8
TITLE
10
970.0000
20
985.0000
30
0.0000
40
15.000
1
C  AUFSCHLAGTUER 460 x 460 x 9
50
0.000
0
LINE
8
DIM
10
970.0000
20
500.0000
30
0.0000
11
970.0000
21
462.0000
31
0.0000
0
LINE
8
DIM
10
1430.0000
20
500.0000
30
0.0000
11
1430.0000
21
462.0000
31
0.0000
0
LINE
8
DIM
10
970.0000
20
462.0000
30
0.0000
11
1430.0000
21
462.0000
31
0.0000
0
LINE
8
DIM
10
970.0000
20
462.0000
30
0.0000
11
978.0000
21
466.0000
31
0.0000
0
LINE
8
DIM
10
970.0000
20
462.0000
30
0.0000
11
978.0000
21
458.0000
31
0.0000
0
LINE
8
DIM
10
1430.0000
20
462.0000
30
0.0000
11
1422.0000
21
466.0000
31
0.0000
0
LINE
8
DIM
10
1430.0000
20
462.0000
30
0.0000
11
1422.0000
21
458.0000
31
0.0000
0
TEXT
8
DIM
10
1180.0000
20
469.0000
30
0.0000
40
9.000
1
460
50
0.000
0
LINE
8
DIM
10
970.0000
20
500.0000
30
0.0000
11
932.0000
21
500.0000
31
0.0000
0
LINE
8
DIM
10
970.0000
20
960.0000
30
0.0000
11
932.0000
21
960.0000
31
0.0000
0
LINE
8
DIM
10
932.0000
20
500.0000
30
0.0000
11
932.0000
21
960.0000
31
0.0000
0
LINE
8
DIM
10
932.0000
20
500.0000
30
0.0000
11
928.0000
21
508.0000
31
0.0000
0
LINE
8
DIM
10
932.0000
20
500.0000
30
0.0000
11
936.0000
21
508.0000
31
0.0000
0
LINE
8
DIM
10
932.0000
20
960.0000
30
0.0000
11
928.0000
21
952.0000
31
0.0000
0
LINE
8
DIM
10
932.0000
20
960.0000
30
0.0000
11
936.0000
21
952.0000
31
0.0000
0
TEXT
8
DIM
10
925.0000
20
712.0000
30
0.0000
40
9.000
1
460
50
90.000
0
TEXT
8
TEXT
10
1005.0000
20
715.0000
30
0.0000
40
11.000
1
LIEGT AUF ALLEN KORPUSKANTEN AUF
50
0.000
0
TEXT
8
TEXT
10
1005.0000
20
690.0000
30
0.0000
40
9.000
1
Links angeschlagen; Schloss rechts; Griff oben rechts
50
0.000
0
TEXT
8
TITLE
10
0.0000
20
405.0000
30
0.0000
40
15.000
1
D  KAMERABODEN INNEN
50
0.000
0
POLYLINE
8
OBJECT
66
1
70
1
0
VERTEX
8
OBJECT
10
0.0000
20
250.0000
30
0.0000
70
0
0
VERTEX
8
OBJECT
10
442.0000
20
250.0000
30
0.0000
70
0
0
VERTEX
8
OBJECT
10
442.0000
20
390.0000
30
0.0000
70
0
0
VERTEX
8
OBJECT
10
0.0000
20
390.0000
30
0.0000
70
0
0
SEQEND
8
OBJECT
0
TEXT
8
TEXT
10
125.0000
20
310.0000
30
0.0000
40
12.000
1
442 x 140 x 9
50
0.000
0
LINE
8
DIM
10
0.0000
20
250.0000
30
0.0000
11
0.0000
21
228.0000
31
0.0000
0
LINE
8
DIM
10
442.0000
20
250.0000
30
0.0000
11
442.0000
21
228.0000
31
0.0000
0
LINE
8
DIM
10
0.0000
20
228.0000
30
0.0000
11
442.0000
21
228.0000
31
0.0000
0
LINE
8
DIM
10
0.0000
20
228.0000
30
0.0000
11
8.0000
21
232.0000
31
0.0000
0
LINE
8
DIM
10
0.0000
20
228.0000
30
0.0000
11
8.0000
21
224.0000
31
0.0000
0
LINE
8
DIM
10
442.0000
20
228.0000
30
0.0000
11
434.0000
21
232.0000
31
0.0000
0
LINE
8
DIM
10
442.0000
20
228.0000
30
0.0000
11
434.0000
21
224.0000
31
0.0000
0
TEXT
8
DIM
10
201.0000
20
235.0000
30
0.0000
40
9.000
1
442
50
0.000
0
LINE
8
DIM
10
0.0000
20
250.0000
30
0.0000
11
-24.0000
21
250.0000
31
0.0000
0
LINE
8
DIM
10
0.0000
20
390.0000
30
0.0000
11
-24.0000
21
390.0000
31
0.0000
0
LINE
8
DIM
10
-24.0000
20
250.0000
30
0.0000
11
-24.0000
21
390.0000
31
0.0000
0
LINE
8
DIM
10
-24.0000
20
250.0000
30
0.0000
11
-28.0000
21
258.0000
31
0.0000
0
LINE
8
DIM
10
-24.0000
20
250.0000
30
0.0000
11
-20.0000
21
258.0000
31
0.0000
0
LINE
8
DIM
10
-24.0000
20
390.0000
30
0.0000
11
-28.0000
21
382.0000
31
0.0000
0
LINE
8
DIM
10
-24.0000
20
390.0000
30
0.0000
11
-20.0000
21
382.0000
31
0.0000
0
TEXT
8
DIM
10
-31.0000
20
302.0000
30
0.0000
40
9.000
1
140
50
90.000
0
TEXT
8
TITLE
10
480.0000
20
370.0000
30
0.0000
40
13.000
1
Einbauposition
50
0.000
0
TEXT
8
TEXT
10
480.0000
20
340.0000
30
0.0000
40
10.000
1
Oberkante Boden: 335 mm ab Unterkante Korpus
50
0.000
0
TEXT
8
TEXT
10
480.0000
20
315.0000
30
0.0000
40
10.000
1
Tiefe: 140 mm; 15 mm Abstand hinter Frontplatte
50
0.000
0
TEXT
8
TEXT
10
480.0000
20
290.0000
30
0.0000
40
10.000
1
Kamera/Linse auf Mittellinie x=230 ausrichten
50
0.000
0
POLYLINE
8
OBJECT
66
1
70
1
0
VERTEX
8
OBJECT
10
970.0000
20
140.0000
30
0.0000
70
0
0
VERTEX
8
OBJECT
10
1412.0000
20
140.0000
30
0.0000
70
0
0
VERTEX
8
OBJECT
10
1412.0000
20
416.0000
30
0.0000
70
0
0
VERTEX
8
OBJECT
10
970.0000
20
416.0000
30
0.0000
70
0
0
SEQEND
8
OBJECT
0
CIRCLE
8
CUT_THROUGH
10
1191.0000
20
278.0000
30
0.0000
40
17.5000
0
TEXT
8
TITLE
10
970.0000
20
440.0000
30
0.0000
40
15.000
1
E  BODEN 442 x 276 x 9
50
0.000
0
TEXT
8
TEXT
10
1120.0000
20
270.0000
30
0.0000
40
10.000
1
MITTIG D=35
50
0.000
0
LINE
8
DIM
10
970.0000
20
140.0000
30
0.0000
11
970.0000
21
118.0000
31
0.0000
0
LINE
8
DIM
10
1412.0000
20
140.0000
30
0.0000
11
1412.0000
21
118.0000
31
0.0000
0
LINE
8
DIM
10
970.0000
20
118.0000
30
0.0000
11
1412.0000
21
118.0000
31
0.0000
0
LINE
8
DIM
10
970.0000
20
118.0000
30
0.0000
11
978.0000
21
122.0000
31
0.0000
0
LINE
8
DIM
10
970.0000
20
118.0000
30
0.0000
11
978.0000
21
114.0000
31
0.0000
0
LINE
8
DIM
10
1412.0000
20
118.0000
30
0.0000
11
1404.0000
21
122.0000
31
0.0000
0
LINE
8
DIM
10
1412.0000
20
118.0000
30
0.0000
11
1404.0000
21
114.0000
31
0.0000
0
TEXT
8
DIM
10
1171.0000
20
125.0000
30
0.0000
40
9.000
1
442
50
0.000
0
LINE
8
DIM
10
970.0000
20
140.0000
30
0.0000
11
948.0000
21
140.0000
31
0.0000
0
LINE
8
DIM
10
970.0000
20
416.0000
30
0.0000
11
948.0000
21
416.0000
31
0.0000
0
LINE
8
DIM
10
948.0000
20
140.0000
30
0.0000
11
948.0000
21
416.0000
31
0.0000
0
LINE
8
DIM
10
948.0000
20
140.0000
30
0.0000
11
944.0000
21
148.0000
31
0.0000
0
LINE
8
DIM
10
948.0000
20
140.0000
30
0.0000
11
952.0000
21
148.0000
31
0.0000
0
LINE
8
DIM
10
948.0000
20
416.0000
30
0.0000
11
944.0000
21
408.0000
31
0.0000
0
LINE
8
DIM
10
948.0000
20
416.0000
30
0.0000
11
952.0000
21
408.0000
31
0.0000
0
TEXT
8
DIM
10
941.0000
20
260.0000
30
0.0000
40
9.000
1
276
50
90.000
0
TEXT
8
TITLE
10
0.0000
20
175.0000
30
0.0000
40
15.000
1
ZUSCHNITTLISTE
50
0.000
0
TEXT
8
TEXT
10
0.0000
20
145.0000
30
0.0000
40
10.000
1
1x Frontplatte         460 x 460 x 15
50
0.000
0
TEXT
8
TEXT
10
0.0000
20
120.0000
30
0.0000
40
10.000
1
2x Seiten             460 x 276 x 9
50
0.000
0
TEXT
8
TEXT
10
0.0000
20
95.0000
30
0.0000
40
10.000
1
2x Deckel/Boden       442 x 276 x 9
50
0.000
0
TEXT
8
TEXT
10
0.0000
20
70.0000
30
0.0000
40
10.000
1
1x Aufschlag-Ruecktuer 460 x 460 x 9
50
0.000
0
TEXT
8
TEXT
10
0.0000
20
45.0000
30
0.0000
40
10.000
1
1x Kameraboden        442 x 140 x 9
50
0.000
0
TEXT
8
TITLE
10
520.0000
20
175.0000
30
0.0000
40
15.000
1
LAYER
50
0.000
0
TEXT
8
TEXT
10
520.0000
20
145.0000
30
0.0000
40
10.000
1
CUT_THROUGH = komplett durchsaegen
50
0.000
0
TEXT
8
TEXT
10
520.0000
20
120.0000
30
0.0000
40
10.000
1
POCKET_8MM = LED-Nut 8 mm tief fraesen
50
0.000
0
TEXT
8
TEXT
10
520.0000
20
95.0000
30
0.0000
40
10.000
1
HINGE = Beschlagposition vor Ort pruefen
50
0.000
0
TEXT
8
TEXT
10
520.0000
20
50.0000
30
0.0000
40
10.000
1
WICHTIG: Tasterloch D=28 ist eine Annahme.
50
0.000
0
TEXT
8
TEXT
10
520.0000
20
25.0000
30
0.0000
40
10.000
1
Vor Zuschnitt Einbaudurchmesser der Taster pruefen.
50
0.000
0
TEXT
8
TITLE
10
850.0000
20
105.0000
30
0.0000
40
13.000
1
GERAETE-REFERENZEN
50
0.000
0
TEXT
8
TEXT
10
850.0000
20
80.0000
30
0.0000
40
9.000
1
SELPHY CP1500: 182.2 x 133 x 57.6
50
0.000
0
TEXT
8
TEXT
10
850.0000
20
60.0000
30
0.0000
40
9.000
1
Raspberry Pi 4: Platine 85 x 56
50
0.000
0
TEXT
8
TEXT
10
850.0000
20
40.0000
30
0.0000
40
9.000
1
Tablet: 360 x 210 x 10 (Platzhalter)
50
0.000
0
TEXT
8
TEXT
10
850.0000
20
20.0000
30
0.0000
40
9.000
1
Steckdosenleiste: 300 x 55 x 40 (Platzhalter)
50
0.000
0
TEXT
8
TEXT
10
850.0000
20
0.0000
30
0.0000
40
9.000
1
EOS 700D: 133.1 x 99.8 x 78.8; Objektiv D69 x 75.2
50
0.000
0
ENDSEC
0
EOF
